<svg width="22" height="22" viewBox="0 0 22 22" fill="none" xmlns="http://www.w3.org/2000/svg">
<path d="M10.186 14.2997C9.99253 13.963 9.89163 13.5811 9.89357 13.1927C9.8955 12.8044 10.0002 12.4235 10.197 12.0887C11.0488 12.0194 11.8404 11.6224 12.4054 10.9812C12.9703 10.34 13.2645 9.50469 13.226 8.65098C13.1876 7.79728 12.8194 6.9918 12.1991 6.40404C11.5787 5.81629 10.7545 5.4921 9.9 5.49971H5.5C4.62479 5.49971 3.78542 5.84739 3.16655 6.46626C2.54768 7.08513 2.2 7.9245 2.2 8.79971C2.2 9.67493 2.54768 10.5143 3.16655 11.1332C3.78542 11.752 4.62479 12.0997 5.5 12.0997H5.588C5.46615 12.828 5.46615 13.5714 5.588 14.2997H5.5C4.04131 14.2997 2.64236 13.7202 1.61091 12.6888C0.579463 11.6573 0 10.2584 0 8.79971C0 7.34102 0.579463 5.94208 1.61091 4.91062C2.64236 3.87917 4.04131 3.29971 5.5 3.29971H9.9C11.3587 3.26179 12.7727 3.80488 13.831 4.80951C14.8892 5.81414 15.5051 7.19802 15.543 8.65671C15.5809 10.1154 15.0378 11.5294 14.0332 12.5877C13.0286 13.646 11.6447 14.2618 10.186 14.2997V14.2997ZM11.814 7.69971C12.0075 8.03643 12.1084 8.41836 12.1064 8.80669C12.1045 9.19503 11.9998 9.57594 11.803 9.91071C10.9512 9.98001 10.1596 10.377 9.59463 11.0182C9.02968 11.6594 8.73548 12.4947 8.77396 13.3484C8.81244 14.2021 9.1806 15.0076 9.80095 15.5954C10.4213 16.1831 11.2455 16.5073 12.1 16.4997H16.5C17.3752 16.4997 18.2146 16.152 18.8335 15.5332C19.4523 14.9143 19.8 14.0749 19.8 13.1997C19.8 12.3245 19.4523 11.4851 18.8335 10.8663C18.2146 10.2474 17.3752 9.89971 16.5 9.89971H16.412C16.5338 9.17144 16.5338 8.42798 16.412 7.69971H16.5C17.9587 7.69971 19.3576 8.27917 20.3891 9.31062C21.4205 10.3421 22 11.741 22 13.1997C22 14.6584 21.4205 16.0573 20.3891 17.0888C19.3576 18.1202 17.9587 18.6997 16.5 18.6997H12.1C11.3777 18.7185 10.6588 18.5948 9.98436 18.3358C9.30988 18.0767 8.69303 17.6874 8.16903 17.1899C7.11076 16.1853 6.49493 14.8014 6.457 13.3427C6.41907 11.884 6.96216 10.47 7.9668 9.41174C8.97143 8.35347 10.3553 7.73764 11.814 7.69971V7.69971Z" fill="black"/>
</svg>
